<svg xmlns="http://www.w3.org/2000/svg" xmlns:xlink="http://www.w3.org/1999/xlink" width="500" zoomAndPan="magnify" viewBox="0 0 375 374.999991" height="500" preserveAspectRatio="xMidYMid meet" version="1.0"><defs><clipPath id="2e2e83c0df"><path d="M 54.136719 38 L 321 38 L 321 337.5 L 54.136719 337.5 Z M 54.136719 38 " clip-rule="nonzero"/></clipPath><clipPath id="25a934e9a1"><path d="M 81.519531 99.082031 L 293.769531 99.082031 L 293.769531 243.832031 L 81.519531 243.832031 Z M 81.519531 99.082031 " clip-rule="nonzero"/></clipPath></defs><path fill="#012345" d="M 315.882812 248.808594 L 315.882812 127.445312 C 315.882812 119.128906 311.445312 111.445312 304.246094 107.285156 L 199.140625 46.605469 C 191.933594 42.445312 183.0625 42.445312 175.863281 46.605469 L 70.757812 107.285156 C 63.550781 111.445312 59.117188 119.128906 59.117188 127.445312 L 59.117188 248.808594 C 59.117188 257.125 63.558594 264.808594 70.757812 268.96875 L 175.863281 329.648438 C 183.066406 333.808594 191.941406 333.808594 199.140625 329.648438 L 304.238281 268.96875 C 311.445312 264.808594 315.882812 257.125 315.882812 248.808594 Z M 315.882812 248.808594 " fill-opacity="1" fill-rule="nonzero"/><g clip-path="url(#2e2e83c0df)"><path fill="#ffffff" d="M 187.5 337.5 C 182.65625 337.5 177.808594 336.25 173.492188 333.757812 L 68.386719 273.078125 C 59.746094 268.089844 54.375 258.785156 54.375 248.808594 L 54.375 127.445312 C 54.375 117.46875 59.746094 108.164062 68.386719 103.175781 L 173.492188 42.496094 C 182.136719 37.507812 192.875 37.507812 201.511719 42.496094 L 306.617188 103.175781 C 315.257812 108.164062 320.628906 117.46875 320.628906 127.445312 L 320.628906 248.808594 C 320.628906 258.785156 315.257812 268.089844 306.617188 273.078125 L 201.511719 333.757812 C 197.191406 336.25 192.347656 337.5 187.5 337.5 Z M 187.5 48.238281 C 184.300781 48.238281 181.089844 49.0625 178.234375 50.710938 L 73.128906 111.390625 C 67.410156 114.691406 63.863281 120.84375 63.863281 127.445312 L 63.863281 248.808594 C 63.863281 255.410156 67.410156 261.558594 73.128906 264.863281 L 178.234375 325.542969 C 183.953125 328.84375 191.050781 328.84375 196.769531 325.542969 L 301.875 264.863281 C 307.589844 261.566406 311.140625 255.410156 311.140625 248.808594 L 311.140625 127.445312 C 311.140625 120.84375 307.589844 114.695312 301.875 111.390625 L 196.769531 50.714844 C 193.914062 49.0625 190.703125 48.238281 187.5 48.238281 Z M 187.5 48.238281 " fill-opacity="1" fill-rule="nonzero"/></g><g clip-path="url(#25a934e9a1)"><path fill="#ffffff" d="M 244.796875 224.484375 L 244.796875 153.582031 L 242.550781 152.820312 L 242.550781 223.933594 C 241.023438 223.550781 239.5 223.210938 237.929688 222.871094 L 237.929688 151.207031 L 235.683594 150.445312 L 235.683594 222.40625 C 234.160156 222.066406 232.632812 221.769531 231.066406 221.472656 L 231.066406 148.835938 L 228.820312 148.070312 L 228.820312 221.09375 C 226.867188 220.753906 224.917969 220.414062 222.96875 220.117188 L 222.96875 132.347656 L 206.355469 144.089844 L 206.355469 218.210938 C 203.984375 218.042969 201.566406 217.871094 199.152344 217.746094 L 199.152344 124.761719 L 196.90625 124 L 196.90625 217.660156 C 195.378906 217.617188 193.855469 217.574219 192.285156 217.53125 L 192.285156 122.433594 L 190.039062 121.667969 L 190.039062 217.53125 C 189.152344 217.53125 188.261719 217.53125 187.371094 217.53125 C 183.554688 217.53125 179.785156 217.617188 176.011719 217.785156 L 176.011719 99.082031 L 155.796875 114.421875 L 155.796875 152.054688 L 164.441406 155.871094 L 164.019531 218.59375 C 162.707031 218.71875 161.347656 218.847656 160.035156 219.015625 L 160.035156 169.304688 L 157.789062 168.414062 L 157.789062 219.269531 C 156.265625 219.480469 154.695312 219.652344 153.171875 219.90625 L 153.171875 166.59375 L 150.925781 165.703125 L 150.925781 220.246094 C 149.398438 220.5 147.832031 220.753906 146.304688 221.007812 L 146.304688 163.835938 L 144.058594 162.949219 L 144.058594 221.390625 C 142.277344 221.726562 140.5 222.066406 138.761719 222.449219 L 138.761719 146.164062 L 121.214844 158.539062 L 121.214844 226.898438 C 107.0625 231.179688 93.625 236.816406 81.546875 243.597656 C 112.78125 233.382812 148.933594 227.535156 187.496094 227.535156 C 226.0625 227.535156 262.214844 233.382812 293.449219 243.597656 C 278.953125 235.460938 262.554688 228.933594 244.796875 224.484375 Z M 244.796875 224.484375 " fill-opacity="1" fill-rule="nonzero"/></g><path fill="#ffffff" d="M 185.546875 120.058594 L 183.34375 119.296875 L 183.34375 217.492188 L 185.546875 217.492188 Z M 185.546875 120.058594 " fill-opacity="1" fill-rule="nonzero"/></svg>